<svg xmlns="http://www.w3.org/2000/svg" version="1.1" xmlns:xlink="http://www.w3.org/1999/xlink" xmlns:svgjs="http://svgjs.com/svgjs" width="1440" height="541" preserveAspectRatio="none" viewBox="0 0 1440 541"><g mask="url(&quot;#SvgjsMask1259&quot;)" fill="none"><rect width="1440" height="541" x="0" y="0" fill="url(#SvgjsLinearGradient1260)"></rect><path d="M1440 0L889.01 0L1440 21.5z" fill="rgba(255, 255, 255, .1)"></path><path d="M889.01 0L1440 21.5L1440 223.48L663.7 0z" fill="rgba(255, 255, 255, .075)"></path><path d="M663.7 0L1440 223.48L1440 311.36L396.02000000000004 0z" fill="rgba(255, 255, 255, .05)"></path><path d="M396.02 0L1440 311.36L1440 384.34000000000003L226.48999999999998 0z" fill="rgba(255, 255, 255, .025)"></path><path d="M0 541L648.38 541L0 415.56z" fill="rgba(0, 0, 0, .1)"></path><path d="M0 415.56L648.38 541L984.3 541L0 345.88z" fill="rgba(0, 0, 0, .075)"></path><path d="M0 345.88L984.3 541L1195.2 541L0 241.82999999999998z" fill="rgba(0, 0, 0, .05)"></path><path d="M0 241.82999999999998L1195.2 541L1363.5900000000001 541L0 186.35z" fill="rgba(0, 0, 0, .025)"></path></g><defs><mask id="SvgjsMask1259"><rect width="1440" height="541" fill="#ffffff"></rect></mask><linearGradient x1="15.61%" y1="-41.54%" x2="84.39%" y2="141.54%" gradientUnits="userSpaceOnUse" id="SvgjsLinearGradient1260"><stop stop-color="rgba(126, 63, 177, 1)" offset="0.91"></stop><stop stop-color="rgba(73, 22, 137, 1)" offset="1"></stop></linearGradient></defs></svg>