<?xml version="1.0" standalone="no"?><svg xmlns="http://www.w3.org/2000/svg" viewBox="0 0 1440 320"><path fill="#800080" fill-opacity="1" d="M0,128L20,149.3C40,171,80,213,120,229.3C160,245,200,235,240,213.3C280,192,320,160,360,154.7C400,149,440,171,480,149.3C520,128,560,64,600,37.3C640,11,680,21,720,58.7C760,96,800,160,840,202.7C880,245,920,267,960,261.3C1000,256,1040,224,1080,192C1120,160,1160,128,1200,133.3C1240,139,1280,181,1320,170.7C1360,160,1400,96,1420,64L1440,32L1440,320L1420,320C1400,320,1360,320,1320,320C1280,320,1240,320,1200,320C1160,320,1120,320,1080,320C1040,320,1000,320,960,320C920,320,880,320,840,320C800,320,760,320,720,320C680,320,640,320,600,320C560,320,520,320,480,320C440,320,400,320,360,320C320,320,280,320,240,320C200,320,160,320,120,320C80,320,40,320,20,320L0,320Z"></path></svg>